<?xml version="1.0" encoding="utf-8"?>
<!-- Generator: Adobe Illustrator 26.0.3, SVG Export Plug-In . SVG Version: 6.00 Build 0)  -->
<svg version="1.1" id="Layer_1" xmlns="http://www.w3.org/2000/svg" xmlns:xlink="http://www.w3.org/1999/xlink" x="0px" y="0px"
	 viewBox="0 0 1080 1080" style="enable-background:new 0 0 1080 1080;" xml:space="preserve">
<style type="text/css">
	.st0{fill:#0055FF;}
	.st1{fill:none;stroke:#0055FF;stroke-width:8;stroke-linecap:round;stroke-miterlimit:10;}
</style>
<g id="Layer_4">
	<path class="st0" d="M540,23.9c226,0,411,185,411,411v210.3c0,226-185,411-411,411l0,0c-226,0-411-185-411-411V434.9
		C129,208.9,314,23.9,540,23.9L540,23.9 M540,15.9C484.1,15.8,428.7,27,377.3,48.9C276.9,91.8,196.9,171.7,154.1,272.2
		C132.2,323.6,120.9,379,121,434.9v210.3c-0.1,55.9,11.2,111.2,33.1,162.7c42.8,100.4,122.8,180.4,223.2,223.2
		c104,44.1,221.4,44.1,325.4,0c100.4-42.8,180.4-122.8,223.2-223.2c21.9-51.4,33.1-106.8,33.1-162.7V434.9
		c0.1-55.9-11.2-111.3-33.1-162.7C883.1,171.8,803.1,91.8,702.7,49C651.3,27.1,595.9,15.8,540,15.9L540,15.9z"/>
	<path class="st1" d="M373,637.7c0-92.8,75.2-168,168-168s168,75.2,168,168"/>
	<line class="st1" x1="540.5" y1="175.2" x2="541" y2="468.2"/>
	<line class="st1" x1="378" y1="587.2" x2="276.2" y2="540.5"/>
	<line class="st1" x1="699" y1="582.2" x2="807.2" y2="532.8"/>
	<line class="st1" x1="597" y1="479.2" x2="693.8" y2="221.2"/>
	<line class="st1" x1="383.7" y1="223.6" x2="480" y2="479.2"/>
	<line class="st1" x1="373" y1="638.2" x2="921" y2="638.2"/>
	<line class="st1" x1="663.3" y1="686.2" x2="918.8" y2="686.2"/>
	<line class="st1" x1="425.5" y1="686.2" x2="588.1" y2="686.2"/>
	<line class="st1" x1="748.3" y1="735.2" x2="910.2" y2="735.2"/>
	<line class="st1" x1="471" y1="735.2" x2="629.3" y2="735.2"/>
	<line class="st1" x1="833.4" y1="784.2" x2="894.6" y2="784.2"/>
	<line class="st1" x1="519" y1="784.2" x2="670.5" y2="784.2"/>
	<line class="st1" x1="882.1" y1="812.3" x2="580" y2="638.2"/>
	<line class="st1" x1="774" y1="907.2" x2="548.2" y2="638.8"/>
	<line class="st1" x1="578" y1="833.2" x2="711" y2="833.2"/>
	<line class="st1" x1="670" y1="882.2" x2="752" y2="882.2"/>
	<line class="st1" x1="655" y1="514.2" x2="800.5" y2="354"/>
	<line class="st1" x1="413" y1="523.2" x2="274.7" y2="370.9"/>
	<path class="st1" d="M159,625.7c33.4-14.1,76.4-25.4,124-19.5c142.4,17.7,182.7,171.7,340,255c43.6,23.1,105,45.4,189.8,49.5"/>
	<path class="st1" d="M159.1,669.4c30.7-10.9,67.7-18.3,107.9-13.3c142.4,17.7,182.7,171.7,340,255c36.5,19.3,85.3,38,149.9,46"/>
	<path class="st1" d="M161.4,715c26.2-7.1,55.8-10.8,87.6-6.9c142.4,17.7,182.7,171.7,340,255c29.4,15.5,60.6,27.4,92.8,35.4"/>
	<path class="st1" d="M176.4,759.7c18.8-2.6,37.8-2.8,56.6-0.5c142.4,17.7,182.7,171.7,340,255c5.5,2.9,11.3,5.8,17.4,8.7"/>
	<path class="st1" d="M195.6,807.8c4.8,0.3,9.6,0.7,14.4,1.3c119.6,14.9,167.1,125.8,272.3,210.3"/>
	<path class="st1" d="M234.4,872c51.6,22.6,89.5,65.7,132.1,112.1"/>
	<path class="st0" d="M175.9,510.3c1.4,1.5,1.5,3.8,0.2,5.5c-2.1,2.7-3.3,6.1-3.2,9.6c0,1.4,0.2,2.9,0.6,4.3c0.4,1.4,1,2.7,1.9,3.9
		c0.8,1.2,1.9,2.1,3.2,2.9c1.4,0.8,2.9,1.1,4.5,1.1c1.5,0.1,3-0.3,4.3-1c1.2-0.7,2.1-1.6,2.9-2.7c0.8-1.3,1.5-2.6,2-4
		c0.6-1.6,1.1-3.2,1.7-5c0.7-2.1,1.4-4.3,2.2-6.4c0.8-2.1,1.9-4.1,3.3-5.9c1.4-1.8,3.1-3.2,5.1-4.3c2.4-1.2,5-1.8,7.7-1.7
		c2.9-0.1,5.8,0.5,8.4,1.8c2.3,1.1,4.3,2.8,5.9,4.8c1.6,2.1,2.8,4.4,3.5,6.9c0.8,2.6,1.2,5.3,1.1,8c0,3.9-0.8,7.8-2.3,11.4
		c-0.8,2-1.9,3.8-3.2,5.5c-1.5,1.8-4.2,2.1-6,0.6c-0.2-0.2-0.4-0.4-0.6-0.6l0,0c-1.4-1.6-1.4-4,0.1-5.6c1-1.1,1.8-2.2,2.5-3.5
		c2.1-3.8,2.6-8.2,1.4-12.4c-0.4-1.4-1.1-2.8-1.9-4c-0.9-1.2-2-2.2-3.3-3c-1.5-0.8-3.1-1.2-4.8-1.1c-1.7-0.1-3.3,0.4-4.7,1.2
		c-1.3,0.8-2.4,1.9-3.2,3.2c-0.9,1.5-1.7,3.1-2.2,4.7c-0.6,1.8-1.2,3.7-1.9,5.7c-0.6,2-1.3,4-2.1,5.9c-0.8,1.9-1.9,3.6-3.3,5.2
		c-1.4,1.6-3,2.8-4.9,3.7c-2.3,1-4.7,1.5-7.2,1.4c-2.8,0.1-5.5-0.6-8-1.9c-2.2-1.2-4.1-2.9-5.5-4.9c-1.5-2.1-2.6-4.4-3.2-6.9
		c-0.7-2.5-1-5.1-1-7.7c0-3.5,0.6-6.9,1.9-10.1c0.5-1.3,1.2-2.6,2-3.8c1.2-1.9,3.7-2.5,5.6-1.2C175.5,509.9,175.7,510.1,175.9,510.3
		L175.9,510.3z"/>
	<path class="st0" d="M231.1,444.7c0.1,3.7-0.6,7.3-2.1,10.7c-1.3,2.9-3.1,5.5-5.5,7.6c-2.3,2-5,3.5-7.9,4.5c-3,1-6.1,1.5-9.2,1.5
		h-34.9c-2.4,0-4.4-2-4.4-4.4l0,0c0-2.4,1.9-4.3,4.4-4.3H206c2.1,0,4.2-0.3,6.3-0.8c2-0.5,3.9-1.4,5.6-2.6c1.7-1.2,3.1-2.9,4-4.8
		c2-4.7,2-10,0-14.6c-0.9-1.9-2.3-3.5-4-4.8c-1.7-1.2-3.6-2.1-5.6-2.6c-2.1-0.5-4.2-0.8-6.3-0.8h-34.4c-2.4,0-4.4-1.9-4.4-4.4l0,0
		l0,0c0-2.4,1.9-4.4,4.4-4.4h34.9c3.1,0,6.2,0.5,9.2,1.5c2.9,0.9,5.6,2.4,7.9,4.5c2.4,2.1,4.2,4.7,5.5,7.6
		C230.5,437.3,231.2,441,231.1,444.7z"/>
	<path class="st0" d="M232.6,338.4v-0.2l-43.9-11.9c-2.3-0.6-3.7-3-3.1-5.3c0,0,0,0,0,0l0,0c0.6-2.3,3-3.7,5.3-3.1c0,0,0,0,0,0
		l49.1,13.3c3.8,1,6,4.9,5,8.7l0,0c-0.6,2.3-2.4,4.2-4.7,4.9l-54,17.3v0.2l44.9,12.2c2.3,0.6,3.7,3,3.1,5.4l0,0
		c-0.6,2.3-3,3.7-5.3,3.1c0,0,0,0,0,0l-48.8-13.2c-3.9-1.1-6.2-5.1-5.2-9l0,0c0.7-2.4,2.5-4.3,4.8-5.1L232.6,338.4z"/>
	<path class="st0" d="M233.4,243.1c0.5,2-0.6,4.1-2.6,4.8c-0.9,0.4-1.8,0.8-2.6,1.3c-2.1,1.3-3.8,3.2-5,5.3c-0.7,1.3-1.3,2.6-1.7,4
		c-0.4,1.4-0.5,2.9-0.4,4.3c0.1,1.4,0.6,2.8,1.3,4.1c0.8,1.4,2,2.5,3.4,3.2c1.3,0.8,2.7,1.3,4.2,1.3c1.3,0,2.7-0.3,3.9-0.9
		c1.4-0.7,2.6-1.5,3.8-2.5c1.3-1.1,2.6-2.2,4-3.4c1.6-1.5,3.3-3,5.2-4.4c1.7-1.4,3.7-2.6,5.8-3.5c4.6-1.9,9.8-1.4,14,1.3
		c2.5,1.4,4.7,3.4,6.3,5.8c1.4,2.2,2.3,4.6,2.7,7.2c0.3,2.6,0.2,5.2-0.5,7.7c-0.7,2.6-1.7,5.2-3.1,7.5c-2,3.4-4.6,6.3-7.8,8.6
		c-1.7,1.3-3.6,2.3-5.6,3.1c-2.2,0.8-4.6-0.3-5.4-2.5c-0.1-0.3-0.2-0.5-0.2-0.8l0,0c-0.4-2.1,0.9-4.2,2.9-4.8c1.4-0.4,2.7-1,3.9-1.8
		c2.4-1.4,4.4-3.4,5.8-5.9c0.8-1.3,1.3-2.7,1.7-4.1c0.4-1.4,0.5-2.9,0.4-4.4c-0.1-1.5-0.6-2.9-1.4-4.2c-0.9-1.4-2.1-2.6-3.6-3.4
		c-1.4-0.9-3-1.4-4.7-1.4c-1.5,0.1-3,0.4-4.4,1.1c-1.6,0.8-3,1.8-4.3,2.9c-1.4,1.2-2.9,2.5-4.5,3.9c-1.5,1.4-3.1,2.8-4.9,4
		c-1.7,1.2-3.5,2.2-5.4,2.8c-2,0.6-4,0.9-6.1,0.7c-2.5-0.3-4.9-1.1-6.9-2.5c-2.4-1.3-4.5-3.3-5.9-5.7c-1.3-2.2-2-4.6-2.3-7.1
		c-0.2-2.5,0-5.1,0.7-7.5c0.7-2.5,1.7-4.9,3-7.1c1.7-3,4.1-5.7,6.9-7.8c1.1-0.9,2.3-1.6,3.6-2.3c2-1,4.5-0.2,5.5,1.8
		C233.2,242.5,233.3,242.8,233.4,243.1L233.4,243.1z"/>
	<path class="st0" d="M303.2,228l20-20.5c1.5-1.5,3.9-1.6,5.5-0.1c0,0,0,0,0,0l0,0c1.5,1.5,1.6,3.9,0.1,5.5l-23.2,23.8
		c-1.6,1.6-4.2,1.7-5.8,0.1c0,0,0,0,0,0l-38.5-37.5c-1.7-1.7-1.8-4.5-0.1-6.2c0,0,0,0,0,0l22.1-22.7c1.5-1.5,3.9-1.6,5.4-0.1
		c0,0,0,0,0,0l0,0c1.5,1.5,1.6,3.9,0.1,5.4c0,0,0,0,0,0l-19.2,19.6l13.4,13l17.9-18.4c1.4-1.5,3.8-1.5,5.3-0.1c0,0,0,0,0,0l0,0
		c1.5,1.4,1.5,3.8,0.1,5.3c0,0,0,0,0,0l-17.9,18.4L303.2,228z"/>
	<path class="st0" d="M373,180.1L373,180.1c-2,1.3-4.7,0.7-6-1.4c0,0,0,0,0,0L340.3,136l-13.7,8.6c-1.8,1.1-4.1,0.6-5.3-1.2l0,0
		c-1.1-1.8-0.6-4.1,1.2-5.3c0,0,0,0,0,0l34.8-21.7c1.8-1.1,4.1-0.6,5.3,1.2c0,0,0,0,0,0l0,0c1.1,1.8,0.6,4.1-1.2,5.3l-13.7,8.6
		l26.7,42.6C375.7,176.1,375,178.8,373,180.1C373,180.1,373,180.1,373,180.1z"/>
	<path class="st0" d="M500.7,120.6l8.6,6.5c1.8,1.4,2.2,4,0.8,5.8c-0.6,0.9-1.6,1.4-2.7,1.6l0,0c-1.1,0.2-2.3-0.1-3.2-0.8l-7.5-5.8
		c-1.7,3.1-4,5.8-6.8,8c-3.1,2.2-6.7,3.7-10.4,4.1c-2.6,0.4-5.2,0.4-7.8,0.1c-2.4-0.3-4.8-1.1-6.9-2.4c-2.1-1.2-3.8-2.8-5.2-4.8
		c-1.5-2.2-2.4-4.7-2.8-7.3c-0.4-2.1-0.3-4.3,0.2-6.4c0.5-1.9,1.3-3.7,2.4-5.4c1.1-1.7,2.4-3.2,3.9-4.5c1.5-1.3,3.1-2.6,4.7-3.7
		c-2.2-1.7-4.3-3.6-6.1-5.7c-1.7-2.1-2.9-4.6-3.2-7.3c-0.4-2.2-0.3-4.5,0.3-6.7c0.6-1.9,1.6-3.7,2.9-5.2c1.4-1.5,3-2.7,4.8-3.6
		c1.9-0.9,3.9-1.6,6-1.9c2.1-0.3,4.2-0.3,6.2,0c1.9,0.3,3.8,0.9,5.5,1.9c1.7,1,3.1,2.4,4.2,4c1.2,1.8,2,3.9,2.3,6.1
		c0.3,1.9,0.2,3.8-0.2,5.6c-0.5,1.7-1.2,3.4-2.2,4.9c-1,1.6-2.3,3-3.7,4.2c-1.4,1.3-3,2.5-4.6,3.6l14.2,10.7l4.9-12.1
		c0.5-1.3,1.7-2.3,3.1-2.5l0,0c2.2-0.4,4.2,1.1,4.6,3.3c0.1,0.8,0,1.6-0.3,2.3L500.7,120.6z M473.4,110.3c-2.5,1.5-4.8,3.5-6.5,5.9
		c-1.5,2.4-2.1,5.2-1.5,8c0.4,3,2.2,5.7,4.7,7.3c1.2,0.8,2.6,1.3,4,1.6c1.4,0.3,2.9,0.3,4.4,0.1c2.6-0.3,5.1-1.4,7.2-3.1
		c2-1.9,3.6-4.1,4.7-6.6L473.4,110.3z M483,88.7c-0.3-2.1-1.4-4-3.1-5.2c-1.7-1.3-3.9-1.8-6-1.4c-2.2,0.3-4.2,1.4-5.5,3.2
		c-1.3,1.8-1.9,4.1-1.4,6.3c0.2,1,0.5,2,1,2.9c0.5,0.9,1.2,1.8,1.9,2.7c0.7,0.9,1.5,1.6,2.4,2.4c0.9,0.7,1.7,1.3,2.5,1.9
		c1.2-0.8,2.3-1.6,3.4-2.5c1.1-0.9,2-1.8,2.8-2.9c0.8-1,1.4-2.2,1.8-3.4C483.1,91.2,483.2,89.9,483,88.7L483,88.7z"/>
	<path class="st0" d="M638,92c-1.8,1.1-4.1,0.7-5.4-0.9c-0.6-0.7-1.3-1.4-2.1-2.1c-1.9-1.6-4.2-2.6-6.6-3.1
		c-1.4-0.3-2.9-0.4-4.3-0.3c-1.5,0.1-2.9,0.4-4.2,1c-1.3,0.6-2.5,1.4-3.5,2.5c-1,1.2-1.7,2.6-2,4.2c-0.4,1.4-0.3,3,0.1,4.4
		c0.4,1.3,1.1,2.4,2,3.4c1.1,1.1,2.2,2.1,3.5,2.8c1.4,0.9,2.9,1.8,4.5,2.7c1.9,1.1,3.9,2.2,5.8,3.5c1.9,1.2,3.6,2.7,5.1,4.4
		c1.4,1.7,2.5,3.7,3.1,5.9c0.7,2.6,0.7,5.3,0,7.9c-0.5,2.9-1.8,5.5-3.5,7.8c-1.6,2-3.6,3.6-5.9,4.8c-2.3,1.1-4.9,1.8-7.5,1.9
		c-2.7,0.2-5.4,0-8.1-0.6c-3.8-0.8-7.5-2.4-10.7-4.6c-1.8-1.2-3.4-2.7-4.7-4.3c-1.5-1.8-1.2-4.5,0.7-6c0.2-0.2,0.4-0.3,0.7-0.4l0,0
		c1.9-1,4.2-0.5,5.5,1.3c0.8,1.2,1.8,2.2,2.9,3.2c3.3,2.8,7.5,4.3,11.8,4c1.5-0.1,3-0.4,4.3-1c1.4-0.6,2.6-1.5,3.6-2.6
		c1.1-1.3,1.8-2.8,2.1-4.4c0.4-1.6,0.3-3.3-0.2-4.9c-0.5-1.4-1.4-2.7-2.5-3.8c-1.2-1.2-2.6-2.3-4.1-3.2c-1.6-1-3.3-2-5.2-3.1
		c-1.8-1-3.6-2.1-5.3-3.4c-1.7-1.2-3.1-2.6-4.4-4.3c-1.2-1.7-2.1-3.5-2.6-5.6c-0.5-2.4-0.5-4.9,0.1-7.4c0.5-2.7,1.7-5.3,3.5-7.4
		c1.7-1.9,3.7-3.4,6-4.4c2.3-1,4.8-1.6,7.4-1.7c2.6-0.1,5.2,0.1,7.7,0.6c3.4,0.7,6.7,2.1,9.6,4c1.2,0.8,2.3,1.7,3.3,2.7
		c1.6,1.6,1.6,4.2,0,5.8C638.6,91.6,638.3,91.8,638,92L638,92z"/>
	<path class="st0" d="M667.4,159.2L667.4,159.2c-2.2-1-3.2-3.5-2.2-5.7l21.4-49.1c1-2.2,3.5-3.2,5.7-2.3c0,0,0,0,0,0l0,0
		c2.2,1,3.2,3.5,2.3,5.7c0,0,0,0,0,0l-21.4,49.1C672.1,159.1,669.6,160.1,667.4,159.2z"/>
	<path class="st0" d="M747.8,193.5l0.2,0.1l27-36.6c1.4-1.9,4.1-2.3,6.1-0.9c0,0,0,0,0,0l0,0c1.9,1.4,2.3,4.1,0.9,6.1c0,0,0,0,0,0
		l-30.2,40.9c-2.3,3.2-6.8,3.9-9.9,1.6c0,0,0,0-0.1,0l0,0c-1.9-1.4-3-3.8-2.9-6.2l3.4-56.6l-0.1-0.1l-27.6,37.4
		c-1.4,1.9-4.2,2.3-6.1,0.9l0,0c-1.9-1.4-2.3-4.1-0.9-6.1c0,0,0,0,0,0l30-40.7c2.4-3.3,7-4,10.3-1.6c0,0,0,0,0,0l0,0
		c2,1.5,3.1,3.9,3,6.3L747.8,193.5z"/>
	<path class="st0" d="M813.5,266.7c0.1,2.3-1.6,4.2-3.9,4.3c-0.3,0-0.6,0-0.9,0c-2.5-0.4-5-1.2-7.3-2.3c-4.4-2.2-8.2-5.4-11.1-9.4
		c-2.8-3.5-4.8-7.6-6.1-11.9c-1.2-4-1.5-8.2-0.9-12.4c0.6-4.1,2-8.1,4.1-11.7c4.8-7.8,12.3-13.6,21.1-16.1c4-1.1,8.3-1.4,12.4-0.7
		c4.1,0.6,8.1,2.1,11.7,4.3c3.8,2.4,7.2,5.4,9.9,9c1.3,1.7,2.4,3.5,3.4,5.5c1,1.9,1.8,4,2.3,6.1c0.6,2,0.9,4.1,0.9,6.2
		c0,0.2,0,0.4,0,0.6c0,2.4-1.9,4.3-4.3,4.2c-0.4,0-0.7-0.1-1.1-0.1l0,0c-2-0.5-3.3-2.3-3.2-4.4c0.1-1.7,0-3.3-0.4-5
		c-0.6-3.1-1.9-6-3.8-8.4c-2-2.7-4.6-5-7.5-6.6c-2.7-1.5-5.7-2.4-8.8-2.6c-3.1-0.2-6.2,0.1-9.2,1.1c-3.1,1-6.1,2.5-8.7,4.5
		c-2.7,2-5,4.5-6.8,7.3c-1.7,2.6-2.9,5.5-3.5,8.5c-0.6,3-0.5,6.1,0.3,9.1c0.8,3.2,2.3,6.3,4.4,8.9c2,2.7,4.6,4.8,7.5,6.3
		c1.8,0.9,3.8,1.5,5.8,1.8C811.8,263.1,813.4,264.7,813.5,266.7L813.5,266.7z"/>
	<path class="st0" d="M830.7,309.9l9.5,22c0.8,2,0,4.2-2,5.1l0,0c-2,0.8-4.2,0-5.1-2l-11.3-26.2c-0.9-2.1,0.1-4.6,2.2-5.5
		c0,0,0,0,0,0l49.4-21.2c2.2-0.9,4.8,0.1,5.7,2.3l0,0c1,2.2-0.1,4.8-2.3,5.7c0,0,0,0,0,0L830.7,309.9z"/>
	<path class="st0" d="M843.2,367.4L843.2,367.4c-0.4-2.4,1.3-4.7,3.7-5c0.6-0.1,1.2-0.1,1.8,0.1l55.4,14.5c2.3,0.6,4.1,2.5,4.4,4.9
		l0,0c0.4,2.4-0.7,4.7-2.8,6l-48.3,30.2c-2.1,1.3-4.9,0.7-6.2-1.4c-0.3-0.5-0.5-1.1-0.6-1.7l0,0c-0.3-1.8,0.6-3.6,2.1-4.5l11.6-7
		l-4.5-29.2l-13.2-3.1C844.8,370.6,843.5,369.2,843.2,367.4z M867.8,376l3.6,23l27.1-16L867.8,376z"/>
	<path class="st0" d="M850.5,457.7L850.5,457.7c0-2.4,1.9-4.4,4.3-4.4h53.6c2.4,0,4.4,2,4.4,4.4l0,0c0,2.4-2,4.3-4.4,4.3h-53.6
		C852.4,462,850.5,460.1,850.5,457.7z"/>
	<path class="st0" d="M850.5,507.2L850.5,507.2c0-2.4,1.9-4.4,4.3-4.4h52.4c3.1,0,5.6,2.5,5.6,5.6l0,0v14.4c0,2.9-0.3,5.7-0.9,8.5
		c-0.5,2.5-1.5,4.9-2.9,7.1c-1.3,2-3.2,3.7-5.3,4.8c-2.5,1.2-5.3,1.8-8,1.8c-4.1,0.2-8.1-1.4-11.1-4.2c-2.9-3-4.8-6.8-5.4-11
		l-21.8,13.3c-2.1,1.3-4.9,0.6-6.1-1.5c-0.4-0.7-0.7-1.5-0.7-2.3l0,0c0-1.6,0.9-3.1,2.2-3.9l25.5-14.5v-9.3h-23.4
		C852.4,511.5,850.5,509.6,850.5,507.2z M885.5,511.6v10c0,1.9,0.2,3.8,0.5,5.7c0.3,1.6,0.9,3.2,1.7,4.6c2.7,4.1,8.2,5.5,12.5,3.1
		c1.2-0.7,2.3-1.8,3-3c0.8-1.4,1.4-2.9,1.6-4.5c0.3-1.8,0.5-3.6,0.5-5.4v-10.6H885.5z"/>
</g>
</svg>
