<?xml version="1.0" encoding="utf-8"?>
<!-- Generator: Adobe Illustrator 26.0.3, SVG Export Plug-In . SVG Version: 6.00 Build 0)  -->
<svg version="1.1" id="Layer_1" xmlns="http://www.w3.org/2000/svg" xmlns:xlink="http://www.w3.org/1999/xlink" x="0px" y="0px"
	 viewBox="0 0 576 576" style="enable-background:new 0 0 576 576;" xml:space="preserve">
<style type="text/css">
	.st0{fill:#E3DFD9;}
</style>
<polygon class="st0" points="411,0.4 322.5,0.4 322.5,411.6 322.5,429.5 322.5,444.3 337.3,444.3 361.6,444.3 542.6,444.3 
	542.6,355.8 411,355.8 "/>
<path class="st0" d="M475.2,0h-20.9v85.7h88.5V67.4c0-37.2-30.2-67.4-67.4-67.4C475.2,0,475.2,0,475.2,0z"/>
<rect x="454.1" y="110.9" class="st0" width="88.5" height="202.1"/>
<path class="st0" d="M292.9,487.5c-7.5,0-13.6-6.1-13.6-13.5l0,0V122.7c0-59-35.6-104.5-88.5-117.9c-11-2.8-22.3-4.2-33.6-4.2
	C85.8,0.6,33.3,50.8,33.3,122.7v385.2c0,37.6,30.5,68.1,68.1,68.1h20.3V333.9h69V485c0,50.2,40.7,90.9,90.9,90.9h0.1H465
	c42.8,0,77.4-34.7,77.4-77.4l0,0v-11.1L292.9,487.5L292.9,487.5z M190.8,245.5h-69.1c-0.6-63.7-0.6-44.4-0.6-108.1
	c0-27.7,1.8-48.4,36-48.4c11.2,0,24.2,3.5,30.1,14.8c1.9,4.4,3.1,9.2,3.5,14L190.8,245.5z"/>
</svg>
